<svg xmlns="http://www.w3.org/2000/svg" width="68.671" height="75.805" viewBox="0 0 68.671 75.805">
  <g id="人物アイコン" transform="translate(-24.092 2.001)">
    <path id="パス_10" data-name="パス 10" d="M74.423,52.565c-2.953-1.1-7.26-4.329-7.26-6.336V40.959c1.707-1.9,3-5.754,3.776-10.124,1.8-.642,2.827-1.67,4.112-6.168C76.416,19.877,73,20.04,73,20.04,75.762,10.879,72.12,2.27,66.018,2.9,61.809-4.461,47.713,4.584,43.3,3.953a9.978,9.978,0,0,0,1.051,4.418c-1.535,2.915-.943,8.728-.512,11.668-.249,0-3.343.028-2.031,4.628,1.285,4.5,2.312,5.525,4.112,6.168.77,4.37,2.068,8.225,3.776,10.124v5.269c0,2.007-4.575,5.389-7.26,6.336-5.548,1.953-19.179,7.571-18.3,18.094.211,2.525,14.1,5.146,34.295,5.146s34.084-2.62,34.3-5.146C93.6,60.125,79.936,54.626,74.423,52.565Z" transform="translate(0 -2)" fill="#4b4b4b"/>
    <g id="クエスチョンマーク" transform="translate(50.417 5.999)">
      <path id="パス_11" data-name="パス 11" d="M118.108,4.742a8.674,8.674,0,0,0-3.3-3.393A9.822,9.822,0,0,0,109.815,0a11.194,11.194,0,0,0-5.635,1.419A6.3,6.3,0,0,0,102.115,3.2a1.079,1.079,0,0,0,.031,1.659l2,1.6a1.079,1.079,0,0,0,1.383-.029,2.712,2.712,0,0,1,1.014-.883,6.41,6.41,0,0,1,3.275-.793,4.971,4.971,0,0,1,3.225,1.152,3.613,3.613,0,0,1,.852,1.038,1.9,1.9,0,0,1,.243.866,3.6,3.6,0,0,1-.367,1.692,3.45,3.45,0,0,1-.653.875,7.314,7.314,0,0,1-1.592,1.139c-.625.353-1.3.663-1.98,1.038a6.125,6.125,0,0,0-2.207,1.976,5.348,5.348,0,0,0-.69,1.537,6.5,6.5,0,0,0-.221,1.727V18.95a1.079,1.079,0,0,0,1.079,1.079h2.6a1.079,1.079,0,0,0,1.079-1.079V17.8a1.807,1.807,0,0,1,.051-.469.583.583,0,0,1,.137-.26,1.855,1.855,0,0,1,.484-.352c.39-.219,1.017-.516,1.727-.9a11.494,11.494,0,0,0,3.445-2.672,7.894,7.894,0,0,0,1.352-2.333,8.616,8.616,0,0,0,.513-3A6.631,6.631,0,0,0,118.108,4.742Z" transform="translate(-101.741 0)" fill="#fff"/>
      <path id="パス_12" data-name="パス 12" d="M178.522,406.44a2.5,2.5,0,1,0,2.5,2.5A2.5,2.5,0,0,0,178.522,406.44Z" transform="translate(-171.607 -385.003)" fill="#fff"/>
    </g>
  </g>
</svg>
